<svg width="68" height="16" viewBox="0 0 68 16" fill="none" xmlns="http://www.w3.org/2000/svg">
<rect width="68" height="16" rx="8" fill="#EBE9FF"/>
<rect width="16" height="16" rx="4" fill="url(#paint0_linear_12_547)"/>
<path d="M11.9987 6.69389C12.0224 7.48097 11.7124 8.30598 11.2735 9.07709C10.3721 10.6612 9.39309 12.1855 8.43068 13.7231C8.1994 14.093 7.80604 14.093 7.57357 13.7191C6.53841 12.0511 5.44114 10.4277 4.5231 8.67257C3.31344 6.36056 4.29182 3.2974 6.53131 2.31272C9.17127 1.15106 12.0313 3.36194 11.9987 6.69389ZM9.65868 6.52623C9.67524 5.49564 8.95477 4.65068 8.03496 4.62074C7.13703 4.59213 6.358 5.4351 6.34498 6.45038C6.33138 7.48829 7.07551 8.34856 7.99887 8.3612C8.88024 8.37317 9.64212 7.53087 9.65868 6.52623Z" fill="white"/>
<defs>
<linearGradient id="paint0_linear_12_547" x1="1.5" y1="2.5" x2="14" y2="17" gradientUnits="userSpaceOnUse">
<stop stop-color="#B9B6FF"/>
<stop offset="1" stop-color="#82007E"/>
</linearGradient>
</defs>
</svg>
