<svg width="14" height="14" viewBox="0 0 14 14" fill="none" xmlns="http://www.w3.org/2000/svg">
<path fill-rule="evenodd" clip-rule="evenodd" d="M6.5 13C2.91015 13 0 10.0899 0 6.5C0 2.91015 2.91015 0 6.5 0C10.0899 0 13 2.91015 13 6.5C13 7.82741 12.6021 9.06188 11.9191 10.0906L13.7072 11.8787C14.0977 12.2693 14.0977 12.9024 13.7072 13.293C13.3166 13.6835 12.6835 13.6835 12.293 13.293L10.5691 11.5691C9.45527 12.4643 8.0402 13 6.5 13ZM6.5 11C8.98528 11 11 8.98528 11 6.5C11 4.01472 8.98528 2 6.5 2C4.01472 2 2 4.01472 2 6.5C2 8.98528 4.01472 11 6.5 11Z" fill="#9E9E9E"/>
</svg>
