<svg width="130" height="32" viewBox="0 0 130 32" fill="none" xmlns="http://www.w3.org/2000/svg">
<rect width="130" height="32" rx="16" fill="#82007E"/>
<path d="M48.176 11.36V13.168H35.552V11.36H41.168C40.9547 10.5173 40.7627 9.86133 40.592 9.392L42.4 9.136C42.6453 9.872 42.8747 10.6133 43.088 11.36H48.176ZM48.768 21.248V23.024H34.928V21.248H42.144C42.56 20.1707 43.0453 18.8533 43.6 17.296C44.1653 15.7387 44.608 14.4693 44.928 13.488L46.656 14.24C46.1333 15.744 45.2533 18.08 44.016 21.248H48.768ZM39.264 20.592C39.0293 19.7493 38.688 18.6933 38.24 17.424C37.792 16.1547 37.3867 15.0987 37.024 14.256L38.656 13.632C38.9973 14.3573 39.408 15.3547 39.888 16.624C40.3787 17.8827 40.7413 18.8853 40.976 19.632L39.264 20.592ZM55.67 17.504C56.022 17.9733 56.438 18.5813 56.918 19.328C57.398 20.064 57.798 20.7147 58.118 21.28L56.838 22.368C56.6673 21.9947 56.4273 21.5467 56.118 21.024L53.142 22.272C52.79 22.432 52.23 22.6933 51.462 23.056L50.566 21.568C50.8113 21.4187 50.9713 21.264 51.046 21.104C51.1207 20.944 51.158 20.7467 51.158 20.512V9.712H57.318V17.36H52.742V20.624L55.206 19.568L54.358 18.288L55.67 17.504ZM58.246 9.968H63.926V19.456C63.926 19.968 63.8673 20.3573 63.75 20.624C63.6433 20.8907 63.4567 21.088 63.19 21.216C62.9233 21.3333 62.5233 21.4133 61.99 21.456L61.286 21.52L60.758 19.712L61.206 19.648C61.5687 19.6053 61.8193 19.5573 61.958 19.504C62.1073 19.4507 62.198 19.376 62.23 19.28C62.262 19.184 62.278 19.0187 62.278 18.784V11.792H59.894V23.504H58.246V9.968ZM55.718 12.8V11.248H52.742V12.8H55.718ZM52.742 14.288V15.824H55.718V14.288H52.742ZM75.116 12.736L75.308 11.84C75.3293 11.7547 75.3667 11.5893 75.42 11.344H72.62V9.728H80.188V11.344H77.02C76.9347 11.7813 76.8333 12.2453 76.716 12.736H79.612V20.112H78.06V14.304H74.316V20.112H72.828V12.736H75.116ZM71.74 19.168L70.428 18.672L70.988 16.368H69.82V21.808C69.82 22.224 69.7773 22.5387 69.692 22.752C69.6067 22.9653 69.4467 23.1307 69.212 23.248C68.988 23.376 68.6413 23.4773 68.172 23.552L67.372 23.68L66.828 21.904L67.628 21.872C67.8947 21.8613 68.0653 21.808 68.14 21.712C68.2253 21.616 68.268 21.4293 68.268 21.152V16.368H66.204V14.832H68.844C68.3853 14.192 67.804 13.4933 67.1 12.736L68.044 11.856C68.3213 12.1333 68.62 12.448 68.94 12.8C69.58 12.032 70.0173 11.5307 70.252 11.296H66.62V9.76H71.996V11.488C71.868 11.584 71.5907 11.888 71.164 12.4C70.748 12.912 70.332 13.44 69.916 13.984C70.0333 14.1227 70.1613 14.304 70.3 14.528L69.964 14.832H72.284V16.336L71.74 19.168ZM76.972 14.88V17.68C76.972 18.672 76.8227 19.536 76.524 20.272C76.2253 20.9973 75.74 21.6533 75.068 22.24C74.396 22.8267 73.4893 23.392 72.348 23.936L71.34 22.4C72.4813 21.9413 73.34 21.488 73.916 21.04C74.5027 20.592 74.8973 20.1013 75.1 19.568C75.3133 19.024 75.42 18.336 75.42 17.504V14.816L76.972 14.88ZM77.356 19.904C78.5187 20.6507 79.58 21.4347 80.54 22.256L79.724 23.872C79.116 23.2853 78.572 22.7787 78.092 22.352C77.612 21.936 77.1 21.536 76.556 21.152L77.356 19.904ZM95.49 11.44L95.458 12.544C95.3193 17.6853 95.234 20.608 95.202 21.312C95.1807 21.824 95.0847 22.2187 94.914 22.496C94.754 22.784 94.498 22.992 94.146 23.12C93.794 23.2587 93.314 23.3493 92.706 23.392L91.298 23.488L90.754 21.776L92.066 21.68C92.4607 21.648 92.738 21.6053 92.898 21.552C93.0687 21.4987 93.1913 21.3973 93.266 21.248C93.3407 21.0987 93.394 20.8533 93.426 20.512C93.4473 20.2347 93.49 19.0293 93.554 16.896C93.618 14.7627 93.6447 13.5147 93.634 13.152H90.45C90.098 14.0053 89.7193 14.768 89.314 15.44L87.826 14.624C88.722 13.184 89.4847 11.3013 90.114 8.976L91.698 9.392C91.5487 9.98933 91.346 10.672 91.09 11.44H95.49ZM82.53 15.28L82.178 13.664C82.4233 13.5573 82.626 13.4133 82.786 13.232C83.0527 12.912 83.4473 12.3253 83.97 11.472C84.5033 10.608 84.9353 9.79733 85.266 9.04L86.722 9.808C86.402 10.48 86.0073 11.1947 85.538 11.952C85.0793 12.6987 84.7167 13.2213 84.45 13.52C85.3033 13.488 85.8687 13.4613 86.146 13.44C86.6473 12.64 86.9887 12.0533 87.17 11.68L88.498 12.544C87.954 13.4827 87.362 14.448 86.722 15.44C86.0927 16.4213 85.6127 17.088 85.282 17.44L87.426 17.12L87.922 17.04L87.954 18.736C87.8793 18.7467 87.4207 18.8053 86.578 18.912C85.5753 19.04 84.6367 19.168 83.762 19.296C83.282 19.3813 82.994 19.44 82.898 19.472L82.53 17.76C82.7753 17.7173 82.9673 17.648 83.106 17.552C83.2553 17.456 83.426 17.312 83.618 17.12C83.97 16.704 84.466 16.016 85.106 15.056L84.594 15.088C83.9967 15.12 83.5113 15.1573 83.138 15.2C83.042 15.2 82.93 15.2107 82.802 15.232C82.674 15.2533 82.5833 15.2693 82.53 15.28ZM91.346 19.456C91.122 19.0187 90.786 18.464 90.338 17.792C89.9007 17.1093 89.4953 16.5333 89.122 16.064L90.402 15.136C90.754 15.5413 91.1487 16.0533 91.586 16.672C92.0233 17.2907 92.4073 17.8667 92.738 18.4L91.346 19.456ZM88.61 21.104L88.69 22.064C88.402 22.064 87.3887 22.208 85.65 22.496C83.9113 22.7947 82.754 23.0027 82.178 23.12L81.954 21.424C82.7327 21.296 83.938 21.0933 85.57 20.816C87.2127 20.5387 88.21 20.3627 88.562 20.288L88.61 21.104Z" fill="white"/>
</svg>
