<svg width="167" height="33" viewBox="0 0 167 33" fill="none" xmlns="http://www.w3.org/2000/svg">
<rect width="167" height="33" rx="16.5" fill="url(#paint0_linear_12_517)"/>
<path d="M81.256 13.04V21.664C81.256 22.1013 81.208 22.4373 81.112 22.672C81.0267 22.9173 80.872 23.0987 80.648 23.216C80.424 23.3333 80.0987 23.4133 79.672 23.456L78.984 23.52L78.536 22.176L79.144 22.112C79.4107 22.0907 79.5973 22.0587 79.704 22.016C79.8107 21.984 79.8853 21.92 79.928 21.824C79.9813 21.728 80.008 21.5733 80.008 21.36V20.176H78.12V23.152H76.856V20.176H74.92C74.8453 20.8267 74.696 21.424 74.472 21.968C74.2587 22.512 73.9387 23.1147 73.512 23.776L72.28 23.04C72.7173 22.4107 73.0373 21.8453 73.24 21.344C73.4533 20.8427 73.5973 20.288 73.672 19.68C73.7467 19.0613 73.784 18.224 73.784 17.168V14.352L73.352 14.784L72.616 13.616C73.2453 12.9973 73.848 12.2667 74.424 11.424C75 10.5813 75.4747 9.73867 75.848 8.896L77.192 9.296C77.0427 9.65867 76.8827 9.98933 76.712 10.288H80.28V11.488C80.1093 11.6693 79.6667 12.1867 78.952 13.04H81.256ZM72.6 22.128H69V17.184C68.8507 17.44 68.6053 17.8347 68.264 18.368L67.272 17.472C67.8373 16.64 68.3547 15.712 68.824 14.688C69.2933 13.6533 69.6507 12.6187 69.896 11.584H68.152V10.16H73.256V11.584H71.224C70.9893 12.608 70.6587 13.6373 70.232 14.672H72.6V22.128ZM75.96 11.616C75.672 12.064 75.3307 12.5387 74.936 13.04H77.24L78.28 11.888C78.3547 11.8133 78.4347 11.7227 78.52 11.616H75.96ZM75.048 15.968H76.856V14.416H75.048V15.968ZM78.12 15.968H80.008V14.416H78.12V15.968ZM70.232 20.736H71.416V16.096H70.232V20.736ZM76.856 18.832V17.344H75.048V17.568C75.048 18.1547 75.0427 18.576 75.032 18.832H76.856ZM78.12 17.344V18.832H80.008V17.344H78.12ZM98.542 22.416L97.486 23.6C96.4407 22.5653 95.5713 21.472 94.878 20.32C94.1847 19.168 93.646 17.8667 93.262 16.416C92.9527 17.7173 92.4513 18.944 91.758 20.096C91.0647 21.248 90.078 22.4427 88.798 23.68L87.726 22.56C88.8673 21.6107 89.774 20.6293 90.446 19.616C91.118 18.6027 91.614 17.4133 91.934 16.048C92.254 14.6827 92.414 13.0293 92.414 11.088V9.184L93.838 9.232V11.456L93.806 12.144C93.9873 14.4373 94.4673 16.4107 95.246 18.064C96.0247 19.7173 97.1233 21.168 98.542 22.416ZM87.63 13.328C87.3847 12.9227 87.0007 12.4 86.478 11.76C85.966 11.1093 85.5287 10.5973 85.166 10.224L86.158 9.296C86.5207 9.62667 86.9527 10.0853 87.454 10.672C87.966 11.248 88.3713 11.7493 88.67 12.176L87.63 13.328ZM89.278 18.448L89.726 19.84C89.4807 20.064 89.1447 20.3787 88.718 20.784C88.2913 21.1787 87.8647 21.584 87.438 22L87.006 22.432L86.734 22.72L85.838 21.744C86.0087 21.584 86.1153 21.4293 86.158 21.28C86.2007 21.12 86.222 20.8907 86.222 20.592V15.68H84.286V14.192H87.678V19.984L89.278 18.448Z" fill="white"/>
<defs>
<linearGradient id="paint0_linear_12_517" x1="0" y1="16.5" x2="167" y2="16.5" gradientUnits="userSpaceOnUse">
<stop stop-color="#6F75DC"/>
<stop offset="1" stop-color="#9F229B"/>
</linearGradient>
</defs>
</svg>
