<svg width="31" height="28" viewBox="0 0 31 28" fill="none" xmlns="http://www.w3.org/2000/svg">
<path d="M15.2022 10.7451C19.9647 10.7451 24.7272 10.759 29.488 10.7294C30.1972 10.7259 30.4203 10.9124 30.415 11.6408C30.3819 15.7672 30.4046 19.8919 30.3976 24.0184C30.3924 26.6689 29.0837 27.9724 26.3827 27.9898C23.382 28.0089 20.3795 27.995 17.3787 27.995C12.9055 27.995 8.43224 28.0002 3.95901 27.9915C1.98814 27.988 0.639376 27.1185 0.219411 25.5484C0.0800035 25.0274 0.0381834 24.4663 0.0364408 23.9226C0.0225001 19.7961 0.0434103 15.6714 0.0137863 11.5449C0.00855848 10.8967 0.181067 10.7224 0.832796 10.7277C5.6197 10.759 10.4118 10.7451 15.2022 10.7451ZM13.8413 23.6734C14.1061 23.6124 14.4181 23.5462 14.662 23.3231C16.774 21.401 18.8965 19.4912 20.9876 17.5482C21.5888 16.9888 21.5505 16.1314 21.0033 15.6191C20.4317 15.0841 19.6981 15.112 18.9871 15.7498C17.4815 17.0951 15.9742 18.4386 14.5104 19.8292C14.012 20.3032 13.6792 20.4043 13.1895 19.8362C12.6458 19.2036 12.0272 18.6321 11.4208 18.0535C10.6767 17.3425 9.94481 17.285 9.36104 17.8549C8.75636 18.4456 8.80342 19.2298 9.53183 19.9808C10.5582 21.0368 11.6125 22.065 12.6493 23.1105C12.97 23.4312 13.3464 23.6124 13.8413 23.6734Z" fill="url(#paint0_linear_12_966)"/>
<path d="M15.218 9.04615C10.4555 9.04615 5.69473 9.03221 0.932226 9.06184C0.22299 9.06706 -0.069758 8.88932 0.0138865 8.15394C0.0783624 7.58412 0.00517097 6.99686 0.0766173 6.42878C0.338006 4.35683 1.54736 3.26423 3.6437 3.17884C4.2205 3.15619 4.7973 3.17884 5.37584 3.17361C6.72983 3.15793 6.52595 3.31999 6.54687 2.04442C6.55035 1.81439 6.53118 1.57914 6.56429 1.35261C6.67233 0.605034 7.101 0.103167 7.85903 0.077028C8.61183 0.0508891 9.08582 0.498735 9.22523 1.25676C9.25137 1.39791 9.26879 1.54081 9.27751 1.6837C9.35941 3.17187 9.3594 3.17187 10.8859 3.17187C14.0313 3.17187 17.1784 3.14399 20.3238 3.19104C21.1115 3.20324 21.3624 2.95928 21.2596 2.21345C21.216 1.90327 21.2387 1.57914 21.2665 1.26373C21.3293 0.519647 21.8503 0.0160373 22.5491 0.000353965C23.2322 -0.0153294 23.8003 0.491765 23.8944 1.201C23.9013 1.25851 23.9013 1.31601 23.9101 1.37352C23.9885 1.93812 23.6556 2.68743 24.0686 3.03421C24.5287 3.41932 25.2884 3.1649 25.9158 3.16316C27.2367 3.16142 28.5175 3.22066 29.4933 4.29933C30.6765 5.60802 30.3908 7.20946 30.3646 8.74643C30.3577 9.21867 29.8697 9.03395 29.5927 9.0357C26.043 9.04789 22.4933 9.04441 18.9437 9.04441C17.7012 9.04615 16.4587 9.04615 15.218 9.04615Z" fill="#B9B6FF"/>
<defs>
<linearGradient id="paint0_linear_12_966" x1="15.2144" y1="10.7275" x2="15.2144" y2="33.9999" gradientUnits="userSpaceOnUse">
<stop stop-color="#B9B6FF"/>
<stop offset="1" stop-color="#9449DB"/>
</linearGradient>
</defs>
</svg>
